<svg baseProfile="full" height="380px" version="1.1" viewBox="0,0,260,380" width="260px" xmlns="http://www.w3.org/2000/svg" xmlns:ev="http://www.w3.org/2001/xml-events" xmlns:xlink="http://www.w3.org/1999/xlink"><defs /><circle cx="130.0" cy="160.0" fill="#F0F0F0" r="120.0" stroke="#000000" stroke-width="4" /><circle cx="130.0" cy="160.0" fill="#FFFFFF" r="110.0" stroke="#000000" stroke-width="2" /><text font-family="FiraSans, sans-serif" font-size="24px" text-anchor="middle" x="130.0" y="74.0">12</text><line stroke="#000000" stroke-width="2" x1="130.0" x2="130.0" y1="92.0" y2="80.0" /><text font-family="FiraSans, sans-serif" font-size="24px" text-anchor="middle" x="177.0" y="86.5936">1</text><line stroke="#000000" stroke-width="2" x1="164.0" x2="170.0" y1="101.1103" y2="90.718" /><text font-family="FiraSans, sans-serif" font-size="24px" text-anchor="middle" x="211.4064" y="121.0">2</text><line stroke="#000000" stroke-width="2" x1="188.8897" x2="199.282" y1="126.0" y2="120.0" /><text font-family="FiraSans, sans-serif" font-size="24px" text-anchor="middle" x="224.0" y="168.0">3</text><line stroke="#000000" stroke-width="2" x1="198.0" x2="210.0" y1="160.0" y2="160.0" /><text font-family="FiraSans, sans-serif" font-size="24px" text-anchor="middle" x="211.4064" y="215.0">4</text><line stroke="#000000" stroke-width="2" x1="188.8897" x2="199.282" y1="194.0" y2="200.0" /><text font-family="FiraSans, sans-serif" font-size="24px" text-anchor="middle" x="177.0" y="249.4064">5</text><line stroke="#000000" stroke-width="2" x1="164.0" x2="170.0" y1="218.8897" y2="229.282" /><text font-family="FiraSans, sans-serif" font-size="24px" text-anchor="middle" x="130.0" y="262.0">6</text><line stroke="#000000" stroke-width="2" x1="130.0" x2="130.0" y1="228.0" y2="240.0" /><text font-family="FiraSans, sans-serif" font-size="24px" text-anchor="middle" x="83.0" y="249.4064">7</text><line stroke="#000000" stroke-width="2" x1="96.0" x2="90.0" y1="218.8897" y2="229.282" /><text font-family="FiraSans, sans-serif" font-size="24px" text-anchor="middle" x="48.5936" y="215.0">8</text><line stroke="#000000" stroke-width="2" x1="71.1103" x2="60.718" y1="194.0" y2="200.0" /><text font-family="FiraSans, sans-serif" font-size="24px" text-anchor="middle" x="36.0" y="168.0">9</text><line stroke="#000000" stroke-width="2" x1="62.0" x2="50.0" y1="160.0" y2="160.0" /><text font-family="FiraSans, sans-serif" font-size="24px" text-anchor="middle" x="48.5936" y="121.0">10</text><line stroke="#000000" stroke-width="2" x1="71.1103" x2="60.718" y1="126.0" y2="120.0" /><text font-family="FiraSans, sans-serif" font-size="24px" text-anchor="middle" x="83.0" y="86.5936">11</text><line stroke="#000000" stroke-width="2" x1="96.0" x2="90.0" y1="101.1103" y2="90.718" /><line stroke="#000000" stroke-width="5" x1="130.0" x2="79.0883" y1="160.0" y2="109.0883" /><line stroke="#000000" stroke-width="3" x1="130.0" x2="130.0" y1="160.0" y2="264.0" /><circle cx="130.0" cy="160.0" fill="#000000" r="4" /><text font-family="FiraSans, sans-serif" font-size="18px" x="31.2" y="366">Answer:</text><line stroke="#000000" stroke-width="3" x1="121.2" x2="228.8" y1="380" y2="380" /></svg>